<?xml version="1.0" encoding="UTF-8" standalone="no"?>
<!-- Created with Inkscape (http://www.inkscape.org/) -->

<svg
   width="132.048"
   height="32.837002"
   viewBox="0 0 34.937701 8.6881234"
   version="1.1"
   id="svg1"
   xmlns="http://www.w3.org/2000/svg"
   xmlns:svg="http://www.w3.org/2000/svg">
  <defs
     id="defs1" />
  <g
     id="layer1">
    <path
       style="font-size:19.05px;font-family:'Bakso Daging';-inkscape-font-specification:'Bakso Daging';fill:#a7936e;stroke-width:2.64583"
       d="m 12.496799,8.6772748 q -0.685799,0.0762 -1.200149,-0.381 -0.51435,-0.4572 -0.51435,-1.12395 0,-0.4190999 0.1143,-0.6476999 0.1905,-0.40005 0.47625,-0.74295 0.28575,-0.3429 0.74295,-0.8001 0.228599,-0.1905 0.419099,-0.4190999 0.4191,-0.4572 1.2192,-1.4097 -2.133599,0.43815 -4.6100994,1.4097 -3.6004498,1.3906499 -6.1150497,3.0289498 -0.13335,0.4572 -0.5715,0.74295 -0.4191,0.28575 -0.93345,0.28575 -0.17145,0 -0.2667,-0.01905 -0.36194994,-0.05715 -0.70484993,-0.3048 -0.26669999,-0.17145 -0.41909998,-0.4953 Q 0,7.4580748 0,7.0961249 q 0,-0.2667 0.09524999,-0.51435 0.19049999,-0.381 0.32384998,-0.5334 0.26669999,-0.32385 0.64769993,-0.5715 0.40005,-0.2667 0.47625,-0.32385 Q 3.6385498,3.781425 6.5912997,2.505075 9.2963996,1.3620751 11.5443,0.75247511 q 2.400299,-0.64769998 4.038599,-0.74294997 0.43815,-0.0381 0.8382,0.07619999 0.4191,0.1143 0.70485,0.38099999 0.28575,0.22859999 0.43815,0.57149998 0.1524,0.32385 0.1524,0.6858 0,0.4571999 -0.20955,0.9143999 -0.24765,0.55245 -0.59055,1.04775 -0.32385,0.47625 -0.89535,1.2001499 4.0386,-1.0286999 8.85825,-1.4668499 2.38125,-0.2286 4.17195,-0.2286 1.80975,0 3.29565,0.20955 0.62865,0.0762 1.12395,0.2286 0.4953,0.1524 0.89535,0.43815 0.2286,0.17145 0.4572,0.6286499 0.1143,0.24765 0.1143,0.5715 0,0.24765 -0.09525,0.5334 -0.13335,0.381 -0.4953,0.70485 -0.1905,0.1524 -0.6858,0.4191 -0.4953,0.2666999 -0.70485,0.2857499 -0.0762,0.01905 -0.2286,0.01905 -0.47625,0 -0.8763,-0.2666999 -0.381,-0.2667 -0.4953,-0.6858 -0.01905,-0.01905 -0.0381,-0.05715 0,-0.05715 -0.01905,-0.0762 l -0.3429,-0.01905 q -0.89535,-0.0762 -1.9812,-0.0762 -1.88595,0 -5.04825,0.32385 -4.4196,0.51435 -8.382,1.5811499 -0.4191,0.1143 -0.62865,0.1905 -0.9144,0.2667 -1.4097,0.381 -0.47625,0.1143 -1.00965,0.1524 z"
       id="text1-6"
       aria-label="™" />
    <rect
       style="fill:#ffffff;fill-opacity:0;stroke-width:12.1123"
       id="rect1"
       width="158.75"
       height="83.34375"
       x="0"
       y="-3.5527137e-15" />
  </g>
</svg>
